<svg width="30" height="30" viewBox="0 0 30 30" fill="none" xmlns="http://www.w3.org/2000/svg">
<path d="M24.9174 20.4949C23.4213 18.662 22.365 17.7289 22.365 12.6756C22.365 8.04797 20.0042 6.3993 18.0612 5.59858C17.8031 5.49244 17.5601 5.24867 17.4815 4.98332C17.1407 3.8222 16.1852 2.79929 14.9151 2.79929C13.645 2.79929 12.6889 3.82278 12.3516 4.98449C12.2729 5.25275 12.0299 5.49244 11.7718 5.59858C9.82649 6.40046 7.46805 8.0433 7.46805 12.6756C7.46514 17.7289 6.40885 18.662 4.91269 20.4949C4.29279 21.2542 4.83579 22.3944 5.92004 22.3944H23.9159C24.9943 22.3944 25.5338 21.2507 24.9174 20.4949Z" stroke="white" stroke-width="2" stroke-linecap="round" stroke-linejoin="round"/>
<path d="M18.6438 22.3944V23.3275C18.6438 24.3174 18.2509 25.2667 17.5517 25.9667C16.8524 26.6666 15.904 27.0599 14.915 27.0599C13.9261 27.0599 12.9777 26.6666 12.2784 25.9667C11.5791 25.2667 11.1863 24.3174 11.1863 23.3275V22.3944" stroke="white" stroke-width="2" stroke-linecap="round" stroke-linejoin="round"/>
</svg>
