<svg width="31" height="32" viewBox="0 0 31 32" fill="none" xmlns="http://www.w3.org/2000/svg">
<path d="M22.7273 21.3485C24.4986 19.1218 25.5682 15.9018 25.5682 12.8091C25.5682 5.65735 19.7876 0 12.7841 0C5.77983 0 0 5.65735 0 12.8091C0 19.9608 5.77983 25.6182 12.7841 25.6182C15.7621 25.6182 18.4325 24.5266 20.5966 22.7717L28.4091 31.3111L30.5398 29.1762L22.7273 21.3485ZM12.7841 22.7717C7.34517 22.7717 2.84091 18.3625 2.84091 12.8091C2.84091 7.25563 7.34517 2.84646 12.7841 2.84646C18.223 2.84646 22.7273 7.25563 22.7273 12.8091C22.7273 18.3625 18.223 22.7717 12.7841 22.7717Z" fill="white"/>
</svg>
