<svg width="24" height="25" viewBox="0 0 24 25" fill="none" xmlns="http://www.w3.org/2000/svg">
<path d="M23 10.0196H14.5C14.2 10.0196 14 9.81916 14 9.51857V1.00196C14 0.400782 13.6 0 13 0H11C10.4 0 10 0.400782 10 1.00196V9.51857C10 9.81916 9.8 10.0196 9.5 10.0196H1C0.4 10.0196 0 10.4203 0 11.0215V13.0254C0 13.6266 0.4 14.0274 1 14.0274H9.5C9.8 14.0274 10 14.2278 10 14.5283V23.045C10 23.6461 10.4 24.0469 11 24.0469H13C13.6 24.0469 14 23.6461 14 23.045V14.5283C14 14.2278 14.2 14.0274 14.5 14.0274H23C23.6 14.0274 24 13.6266 24 13.0254V11.0215C24 10.4203 23.6 10.0196 23 10.0196Z" fill="white"/>
</svg>
