<svg width="32" height="32" viewBox="0 0 32 32" fill="none" xmlns="http://www.w3.org/2000/svg">
<g clip-path="url(#clip0_13_92)">
<path d="M11.7812 9.27094C11.659 9.40303 11.5795 9.48826 11.5198 9.55219C11.6306 9.43285 11.7812 9.27094 11.7812 9.27094Z" fill="white"/>
<path d="M17.2059 10.2772C17.6122 10.7781 17.8139 11.3688 17.8139 12.0491C17.8139 12.5359 17.6746 13.0041 17.3977 13.4567C17.2457 13.7128 17.0454 13.9605 16.7954 14.1967L15.963 15.0208C15.1647 15.8064 14.6491 16.5023 14.4133 17.1115C14.1775 17.7192 14.0596 18.5205 14.0596 19.5139H15.9119C15.9119 18.6387 16.0113 17.9768 16.2087 17.5285C16.4061 17.0802 16.838 16.5337 17.5042 15.8861C18.4203 14.9965 19.0283 14.322 19.3295 13.8637C19.6306 13.4054 19.7826 12.8076 19.7826 12.0704C19.7826 10.855 19.3721 9.85584 18.5496 9.07306C17.7272 8.29029 16.6335 7.90033 15.267 7.90033C13.7897 7.90033 12.6278 8.35715 11.7811 9.27091C10.9345 10.1847 10.5112 11.3915 10.5112 12.893H12.3635C12.3976 11.9892 12.5411 11.2976 12.7897 10.8179C13.2328 9.95689 14.034 9.52564 15.1931 9.52564C16.1292 9.52569 16.8011 9.77618 17.2059 10.2772Z" fill="white"/>
<path d="M31.25 15.6555C31.25 7.00939 24.2542 0 15.625 0C6.99571 0 0 7.00939 0 15.6555C0 24.3017 6.99571 31.3111 15.625 31.3111C24.2542 31.3111 31.25 24.3017 31.25 15.6555ZM1.42045 15.6555C1.42045 7.79503 7.77982 1.42322 15.625 1.42322C23.4702 1.42322 29.8296 7.79503 29.8296 15.6555C29.8296 23.5161 23.4702 29.8879 15.625 29.8879C7.77982 29.8879 1.42045 23.5161 1.42045 15.6555Z" fill="white"/>
<path d="M16.0881 21.2432H14.0171V23.4107H16.0881V21.2432Z" fill="white"/>
</g>
<defs>
<clipPath id="clip0_13_92">
<rect width="31.25" height="31.3111" fill="white"/>
</clipPath>
</defs>
</svg>
