<svg width="30" height="30" viewBox="0 0 30 30" fill="none" xmlns="http://www.w3.org/2000/svg">
<g clip-path="url(#clip0_20_57)">
<path d="M19.9001 7.46251H23.6313C23.9612 7.46251 24.2776 7.59354 24.5108 7.82679C24.7441 8.06004 24.8751 8.37639 24.8751 8.70626V22.3875C24.8751 23.0472 24.613 23.6799 24.1465 24.1464C23.68 24.6129 23.0473 24.875 22.3876 24.875M22.3876 24.875C21.7279 24.875 21.0952 24.6129 20.6287 24.1464C20.1622 23.6799 19.9001 23.0472 19.9001 22.3875V6.21876C19.9001 5.88889 19.7691 5.57254 19.5358 5.33929C19.3026 5.10604 18.9862 4.97501 18.6563 4.97501H6.21885C5.88898 4.97501 5.57263 5.10604 5.33938 5.33929C5.10614 5.57254 4.9751 5.88889 4.9751 6.21876V21.1438C4.9751 22.1333 5.36821 23.0824 6.06796 23.7821C6.7677 24.4819 7.71676 24.875 8.70635 24.875H22.3876Z" stroke="white" stroke-width="2" stroke-linecap="round" stroke-linejoin="round"/>
<path d="M9.94995 9.95001H14.925" stroke="white" stroke-width="2" stroke-linecap="round" stroke-linejoin="round"/>
<path d="M9.94995 14.925H14.925" stroke="white" stroke-width="2" stroke-linecap="round" stroke-linejoin="round"/>
<path d="M9.94995 19.9H14.925" stroke="white" stroke-width="2" stroke-linecap="round" stroke-linejoin="round"/>
</g>
<defs>
<clipPath id="clip0_20_57">
<rect width="29.85" height="29.85" fill="white"/>
</clipPath>
</defs>
</svg>
