<svg xmlns="http://www.w3.org/2000/svg" version="1.1" viewBox="0.52 0.13 7104.48 1521.96"><path d="M 694 546.608 L 694 630.217 691.250 629.509 C 669.691 623.960, 618.048 623.734, 581.807 629.028 C 525.854 637.203, 490.028 659.995, 469.268 700.625 C 451.633 735.139, 444.303 775.182, 443.288 842.545 C 442.439 898.947, 445.830 934.241, 455.460 969.231 C 474.871 1039.764, 513.693 1075.004, 582 1084.096 C 595.846 1085.939, 627.057 1085.680, 640.645 1083.610 C 659.452 1080.745, 667.256 1078.304, 693.223 1067.167 C 693.650 1066.983, 694 1105.121, 694 1151.917 L 694 1237 760 1237 L 826 1237 826 1152 C 826 1105.250, 826.169 1067, 826.375 1067 C 826.581 1067, 830.148 1068.548, 834.300 1070.440 C 872.007 1087.624, 924.498 1090.560, 968 1077.919 C 1025.959 1061.077, 1060.219 1012.799, 1071.905 931.500 C 1075.738 904.834, 1076.452 892.470, 1076.410 853.500 C 1076.365 813.268, 1074.891 792.978, 1069.927 764.273 C 1052.573 663.926, 999.207 625.104, 878.500 625.018 C 860.533 625.005, 842.622 626.405, 833.188 628.559 C 829.716 629.351, 826.679 630, 826.438 630 C 826.197 630, 826 592.425, 826 546.500 L 826 463 760 463 L 694 463 694 546.608 M 6066 677.106 C 5925.358 681.674, 5859.102 701.239, 5823.333 748.766 C 5804.533 773.744, 5791.049 801.160, 5766.166 865 C 5740.279 931.412, 5723.189 967.416, 5710.948 981.322 C 5705.779 987.194, 5696.112 994.171, 5688.371 997.616 C 5682.759 1000.114, 5666.993 1003.959, 5662.250 1003.987 L 5660 1004 5660 843 L 5660 682 5529.500 682 L 5399 682 5399 1102.004 L 5399 1522.007 5529.250 1521.754 L 5659.500 1521.500 5659.753 1355.603 L 5660.006 1189.705 5668.307 1190.343 C 5689.648 1191.984, 5706.374 1199.912, 5718.812 1214.283 C 5727.564 1224.395, 5740.186 1245.399, 5753.464 1271.944 C 5758.019 1281.050, 5786.382 1340.475, 5816.494 1404 C 5846.606 1467.525, 5871.693 1520.063, 5872.244 1520.750 C 5873.535 1522.362, 6166 1522.610, 6166 1520.998 C 6166 1519.314, 6042.421 1272.689, 6032.213 1254 C 6001.243 1197.303, 5972.933 1158.692, 5944 1133.690 C 5923.910 1116.329, 5898.043 1100.745, 5874.705 1091.940 L 5865.909 1088.622 5875.705 1083.986 C 5904.335 1070.435, 5925.569 1052.633, 5941.100 1029.158 C 5950.574 1014.838, 5963.037 989.216, 5973.522 962.500 C 5983.602 936.820, 5992.391 919.257, 6001.780 906.038 C 6027.621 869.653, 6058.641 855.686, 6116.750 854.268 L 6139 853.725 6139 764.863 L 6139 676 6114.750 676.155 C 6101.413 676.240, 6079.475 676.668, 6066 677.106 M 1874 1101.152 C 1786.825 1331.658, 1715.500 1520.534, 1715.500 1520.877 C 1715.500 1521.219, 1775.260 1521.614, 1848.299 1521.754 L 1981.099 1522.007 1982.433 1518.754 C 1983.167 1516.964, 1992.899 1485.688, 2004.060 1449.250 L 2024.352 1383 2171.637 1383 L 2318.923 1383 2320.339 1387.750 C 2329.044 1416.949, 2360.454 1518.919, 2361.152 1520.250 C 2362.020 1521.904, 2369.553 1522, 2497.869 1522 C 2572.557 1522, 2633.895 1521.772, 2634.174 1521.493 C 2634.453 1521.214, 2616.840 1473.626, 2595.035 1415.743 C 2573.229 1357.859, 2502.109 1169.088, 2436.989 996.250 L 2318.591 682 2175.545 682.025 L 2032.500 682.050 1874 1101.152 M 2717.249 1101.750 L 2717.500 1521.500 2848 1521.500 L 2978.500 1521.500 2978.752 1205.250 L 2979.003 889 3121.500 889 L 3263.997 889 3264.248 1205.250 L 3264.500 1521.500 3394.500 1521.500 L 3524.500 1521.500 3524.751 1101.750 L 3525.002 682 3121 682 L 2716.998 682 2717.249 1101.750 M 3639 786 L 3639 890 3772 890 L 3905 890 3905 1206.004 L 3905 1522.007 4035.250 1521.754 L 4165.500 1521.500 4165.752 1205.750 L 4166.003 890 4299.002 890 L 4432 890 4432 786 L 4432 682 4035.500 682 L 3639 682 3639 786 M 4548.249 1101.750 L 4548.500 1521.500 4903.750 1521.751 L 5259 1522.003 5259 1426.501 L 5259 1331 5034.500 1331 L 4810 1331 4810 1249 L 4810 1167 5012 1167 L 5214 1167 5214 1081 L 5214 995 5012 995 L 4810 995 4810 928.500 L 4810 862 5028 862 L 5246 862 5246 772 L 5246 682 4896.999 682 L 4547.998 682 4548.249 1101.750 M 6499.643 691.247 C 6484.665 730.111, 6186 1520.269, 6186 1521.030 C 6186 1521.663, 6232.966 1521.918, 6319.155 1521.754 L 6452.309 1521.500 6473.453 1452.500 L 6494.597 1383.500 6642.044 1383.500 L 6789.490 1383.500 6810.540 1452.500 L 6831.589 1521.500 6968.295 1521.754 C 7043.483 1521.893, 7104.998 1521.668, 7104.995 1521.254 C 7104.993 1520.839, 7033.946 1331.950, 6947.113 1101.500 L 6789.235 682.500 6646.222 682.247 L 6503.209 681.993 6499.643 691.247 M 621.500 736.002 C 591.002 740.589, 577.486 758.920, 571.335 804.044 C 568.679 823.530, 568.652 889.063, 571.293 906 C 575.498 932.960, 582.579 950.747, 593.433 961.612 C 602.796 970.984, 612.273 975.104, 628.927 977.040 C 639.890 978.315, 654.263 977.276, 665.404 974.403 C 678.466 971.036, 690.191 961.980, 692.811 953.236 C 693.696 950.281, 694 922.829, 694 845.744 L 694 742.219 685.996 740.060 C 681.595 738.872, 673.157 737.256, 667.246 736.469 C 656.015 734.974, 630.092 734.709, 621.500 736.002 M 851.880 736.519 C 846.589 737.241, 838.595 738.821, 834.117 740.029 L 825.973 742.226 826.237 847.942 L 826.500 953.657 829.535 958.566 C 837.954 972.183, 863.893 979.983, 890.881 977.013 C 907.573 975.176, 917.142 971.047, 926.567 961.612 C 937.815 950.352, 944.830 932.227, 948.477 905 C 950.732 888.172, 951.535 849.059, 950.105 825.717 C 946.422 765.579, 933.460 742.220, 900.619 736.537 C 889.794 734.664, 865.540 734.655, 851.880 736.519 M 6596.722 1050.196 C 6571.564 1132.313, 6550.985 1199.838, 6550.990 1200.250 C 6550.996 1200.662, 6592.223 1201, 6642.607 1201 C 6721.402 1201, 6734.138 1200.801, 6733.668 1199.578 C 6733.259 1198.510, 6643.880 905.855, 6642.693 901.696 C 6642.567 901.254, 6621.880 968.079, 6596.722 1050.196 M 2126.072 1050.750 C 2101.138 1132.013, 2080.534 1199.063, 2080.285 1199.750 C 2079.926 1200.744, 2098.576 1201, 2171.417 1201 C 2221.787 1201, 2263.010 1200.662, 2263.021 1200.250 C 2263.068 1198.603, 2172.550 903, 2171.999 903 C 2171.674 903, 2151.007 969.487, 2126.072 1050.750" stroke="none" fill="#c2243c" fill-rule="evenodd"></path><path d="M 1280.500 0.697 C 1221.713 8.479, 1152.387 26.174, 1100.955 46.525 C 1008.240 83.211, 950.202 132.666, 925.180 196.307 C 924.665 197.618, 923.253 195.026, 920.035 186.860 C 909.567 160.300, 891.770 127.855, 875.169 105.067 C 858.885 82.713, 834.115 55.468, 832.014 57.599 C 830.774 58.857, 823.429 83.616, 821.021 94.659 C 813.084 131.040, 811.415 167.478, 816.400 195.518 C 826.963 254.937, 863.148 293.985, 923.836 311.453 C 975.655 326.368, 1016.070 326.657, 1059 312.419 C 1140.937 285.243, 1213.696 199.802, 1266.711 68.500 C 1274.711 48.688, 1290 4.686, 1290 1.475 C 1290 -0.011, 1287.435 -0.221, 1280.500 0.697 M 2026.155 1.569 C 1969.727 7.721, 1925.315 27.126, 1891.775 60.283 C 1858.504 93.175, 1839.566 134.730, 1831.292 193 C 1828.748 210.915, 1828.774 267.906, 1831.334 286 C 1837.822 331.860, 1851.489 366.798, 1875.477 398.850 C 1898.652 429.815, 1923.934 450.130, 1954.831 462.613 C 1972.924 469.923, 1995.007 475.236, 2021.500 478.653 C 2041.448 481.227, 2096.941 481.253, 2115 478.698 C 2157.609 472.670, 2188.036 459.893, 2216.396 436.119 C 2244.261 412.759, 2267.441 373.816, 2278.869 331.162 L 2281.769 320.338 2218.635 301.273 C 2157.384 282.777, 2155.480 282.272, 2154.834 284.354 C 2154.468 285.534, 2152.991 290.734, 2151.551 295.910 C 2143.817 323.718, 2131.279 345.474, 2116.500 356.732 C 2104.685 365.732, 2092.259 370.139, 2073.422 372.009 C 2045.784 374.754, 2021.427 367.615, 2004.504 351.810 C 1992.140 340.263, 1985.561 328.322, 1980.571 308.365 C 1971.933 273.819, 1971.034 218.185, 1978.555 183.500 C 1986.759 145.659, 2009.830 119.486, 2042.500 110.957 C 2052.611 108.318, 2070.924 107.347, 2081 108.917 C 2101.378 112.092, 2119.359 122.163, 2132.214 137.600 C 2137.502 143.950, 2144.741 157.911, 2147.626 167.323 C 2149.381 173.047, 2149.464 173.135, 2152.551 172.556 C 2160.824 171.004, 2276.206 145.127, 2276.597 144.736 C 2277.269 144.065, 2271.733 128.900, 2266.473 117 C 2260.542 103.583, 2251.736 88.069, 2243.209 76.016 C 2234.594 63.839, 2215.163 44.375, 2203 35.741 C 2177.254 17.465, 2142.816 5.828, 2101.778 1.539 C 2083.665 -0.355, 2043.648 -0.339, 2026.155 1.569 M 2534.524 1.632 C 2484.453 7.070, 2442.130 23.844, 2409.500 51.181 C 2372.359 82.297, 2348.886 123.652, 2338.653 176 C 2334.153 199.021, 2333.497 207.579, 2333.553 242.500 C 2333.611 278.752, 2334.820 290.794, 2340.983 316.500 C 2350.560 356.445, 2370.069 391.838, 2398 419.942 C 2430.708 452.853, 2472.315 471.219, 2531.086 478.689 C 2548.183 480.862, 2603.037 481.178, 2619 479.196 C 2686.322 470.835, 2736.779 443.493, 2771.482 396.568 C 2802.316 354.874, 2816.360 300.369, 2814.660 229 C 2813.481 179.548, 2805.855 145.981, 2787.852 111 C 2772.468 81.108, 2751.239 57.284, 2723.611 38.906 C 2691.506 17.551, 2654.588 5.603, 2606.500 1.007 C 2591.989 -0.380, 2549.660 -0.012, 2534.524 1.632 M 4118.897 9.750 C 4113.613 23.544, 3945 472.381, 3945 472.653 C 3945 472.851, 3978.166 472.897, 4018.702 472.756 L 4092.404 472.500 4103.500 435 L 4114.596 397.500 4196.092 397.244 L 4277.587 396.988 4289.044 434.989 L 4300.500 472.990 4376.219 472.995 C 4445.519 473, 4451.885 472.863, 4451.317 471.385 C 4450.843 470.150, 4451.145 469.907, 4452.599 470.355 C 4458.447 472.156, 4480.272 474.168, 4499.500 474.679 C 4551.736 476.068, 4593.824 468.707, 4618.708 453.831 C 4625.402 449.829, 4638.586 437.695, 4643.471 431.040 C 4652.363 418.926, 4658.238 402.932, 4661.856 380.988 C 4667.418 347.259, 4668.970 308.238, 4668.987 201.750 L 4669 123 4724.500 123 L 4780 123 4780 298 L 4780 473 4852.500 473 L 4925 473 4925 240.500 L 4925 8 4725.047 8 L 4525.095 8 4524.718 170.250 C 4524.303 348.966, 4524.637 339.630, 4518.157 353.478 C 4510.818 369.161, 4499.908 373.901, 4469.260 374.721 L 4450.020 375.237 4449.760 420.954 L 4449.500 466.671 4363.500 237.794 C 4316.200 111.911, 4277.073 8.485, 4276.550 7.958 C 4275.960 7.364, 4246.069 7, 4197.775 7 L 4119.950 7 4118.897 9.750 M 5020 240.032 L 5020 473.078 5161.250 472.734 C 5302.114 472.391, 5302.540 472.384, 5316.954 470.132 C 5371.141 461.665, 5408.576 441.688, 5429.062 410.308 C 5441.990 390.503, 5446.821 373.679, 5447.697 345.403 C 5450.340 260.144, 5408.948 210.829, 5320.289 193.602 C 5293.244 188.348, 5283.701 187.734, 5221.755 187.268 L 5164.011 186.833 5163.755 97.166 L 5163.500 7.500 5091.750 7.243 L 5020 6.987 5020 240.032 M 6191.313 8.231 C 6190.866 8.915, 6151.326 113.655, 6103.447 240.987 L 6016.395 472.500 6089.858 472.756 C 6130.262 472.898, 6163.437 472.897, 6163.579 472.755 C 6163.721 472.612, 6168.618 456.297, 6174.462 436.498 C 6180.306 416.699, 6185.323 399.712, 6185.611 398.750 C 6186.104 397.102, 6190.877 397, 6267.524 397 L 6348.914 397 6351.898 406.750 C 6353.539 412.113, 6358.078 427.075, 6361.985 440 C 6365.891 452.925, 6369.779 465.639, 6370.625 468.253 L 6372.163 473.006 6528.699 472.753 L 6685.236 472.500 6725.868 397.352 C 6748.216 356.020, 6768.695 318.746, 6771.378 314.520 C 6779.233 302.149, 6786.006 295.529, 6795.397 291.047 C 6805.542 286.206, 6811.354 285, 6824.549 285 L 6835 285 6835 379 L 6835 473 6907.500 473 L 6980 473 6980 240.500 L 6980 8 6844.700 8 C 6705.944 8, 6694.687 8.261, 6669.500 12.066 C 6635.542 17.196, 6615.422 26.065, 6596.328 44.319 C 6577.260 62.548, 6566.085 84.414, 6561.483 112.500 C 6559.750 123.073, 6559.536 147.518, 6561.078 158.608 C 6565.923 193.443, 6584.230 223.473, 6613.156 244.037 C 6625.842 253.055, 6647.141 262.203, 6664.495 266.086 C 6667.560 266.772, 6669.714 267.627, 6669.283 267.986 C 6668.853 268.345, 6665.125 269.906, 6661 271.456 C 6647.607 276.487, 6636.057 283.016, 6629.193 289.434 C 6622.088 296.078, 6604.372 317.692, 6597.539 328.053 C 6595.161 331.658, 6577.330 365.370, 6557.913 402.969 C 6527.676 461.522, 6522.490 470.985, 6521.770 468.916 C 6521.308 467.587, 6482.112 363.225, 6434.669 237 L 6348.409 7.500 6270.267 7.244 C 6208.861 7.043, 6191.951 7.254, 6191.313 8.231 M 2892 240.500 L 2892 473 3082 473 L 3272 473 3272 523.500 L 3272 574 3330 574 L 3388 574 3388 469.500 L 3388 365 3363 365 L 3338 365 3338 186.500 L 3338 8 3266 8 L 3194 8 3194 183 L 3194 358 3115.500 358 L 3037 358 3037 183 L 3037 8 2964.500 8 L 2892 8 2892 240.500 M 3451 240.507 L 3451 473.014 3519.192 472.757 L 3587.383 472.500 3673.442 346.188 L 3759.500 219.876 3759.754 346.438 L 3760.008 473 3828.004 473 L 3896 473 3896 240.500 L 3896 8 3828.250 8.052 L 3760.500 8.103 3674 135.527 L 3587.500 262.952 3587.246 135.476 L 3586.992 8 3518.996 8 L 3451 8 3451 240.507 M 5522 240.500 L 5522 473 5594.500 473 L 5667 473 5667 379 L 5667 285 5745 285 L 5823 285 5823 379 L 5823 473 5895.500 473 L 5968 473 5968 240.500 L 5968 8 5895.500 8 L 5823 8 5823 89 L 5823 170 5745 170 L 5667 170 5667 89 L 5667 8 5594.500 8 L 5522 8 5522 240.500 M 6753.552 103.103 C 6725.274 106.082, 6712.769 114.058, 6706.976 132.813 C 6701.781 149.632, 6706.155 168.389, 6717.940 179.826 C 6723.847 185.559, 6731.021 188.488, 6748 192.102 L 6763.500 195.401 6799.250 195.768 L 6835 196.136 6835 149.068 L 6835 102 6798.250 102.133 C 6778.038 102.206, 6757.923 102.643, 6753.552 103.103 M 2556 110.452 C 2537.787 113.450, 2520.829 121.986, 2508.407 134.407 C 2492.877 149.938, 2483.743 171.584, 2479.284 203.429 C 2476.887 220.546, 2476.913 262.955, 2479.330 279.268 C 2482.627 301.511, 2488.093 318.798, 2496.094 332.284 C 2501.636 341.626, 2514.446 354.407, 2523.872 359.999 C 2553.008 377.285, 2596.663 377.223, 2625.658 359.855 C 2633.579 355.109, 2644.997 344.179, 2649.911 336.636 C 2661.751 318.464, 2667.786 293.869, 2670.130 254.242 C 2671.370 233.276, 2670.356 210.275, 2667.462 193.738 C 2659.391 147.619, 2635.200 119.938, 2595.500 111.394 C 2585.422 109.225, 2566.233 108.767, 2556 110.452 M 4171.682 211.806 C 4158.062 256.738, 4146.937 293.837, 4146.959 294.250 C 4147.003 295.052, 4247 295.325, 4247 294.523 C 4247 293.966, 4196.880 130.593, 4196.621 130.306 C 4196.525 130.200, 4185.302 166.875, 4171.682 211.806 M 6242.757 212.689 C 6229.149 257.602, 6218.166 294.499, 6218.350 294.683 C 6218.534 294.868, 6241.163 294.902, 6268.635 294.759 L 6318.584 294.500 6293.542 212.765 C 6279.769 167.811, 6268.275 131.030, 6268 131.030 C 6267.725 131.031, 6256.366 167.777, 6242.757 212.689 M 474.500 166.614 C 430.259 171.014, 394.438 179.852, 351.802 196.886 C 168.048 270.301, 49.607 429.348, 12.023 653.155 C 3.275 705.250, 0.505 740.599, 0.519 800 C 0.531 848.812, 0.959 855.896, 6.083 892 C 20.140 991.056, 61.055 1101.029, 118.812 1195 C 154.371 1252.855, 190.712 1299.020, 236.897 1345.005 C 294.355 1402.214, 352.815 1443.469, 418 1472.811 C 448.113 1486.365, 466.687 1492.447, 499.454 1499.482 C 538.579 1507.881, 563.464 1510.492, 596.861 1509.703 C 628.342 1508.958, 635.866 1507.761, 689.500 1494.965 C 756.378 1479.009, 782.150 1475.208, 839.666 1472.818 C 862.207 1471.881, 874.699 1471.872, 894.666 1472.777 C 950.934 1475.328, 989.071 1481.344, 1051.500 1497.518 C 1114.131 1513.745, 1130.076 1517.114, 1153.614 1519.093 C 1184.658 1521.703, 1217.531 1516.876, 1249.500 1505.012 C 1285.747 1491.560, 1347.332 1456.777, 1390.706 1425.258 C 1495.293 1349.257, 1571.347 1246.194, 1626.960 1105.102 L 1628.985 1099.963 1592.243 1100.511 C 1572.034 1100.812, 1549.572 1101.315, 1542.327 1101.628 L 1529.155 1102.197 1517.851 1120.327 C 1460.407 1212.463, 1383.996 1285.600, 1281.153 1346.882 C 1260.199 1359.368, 1249.291 1364.634, 1233.315 1369.975 C 1208.701 1378.205, 1191.164 1380.489, 1158.538 1379.712 C 1126.228 1378.943, 1104.683 1375.432, 1037.500 1359.988 C 963.689 1343.021, 931.905 1337.863, 890 1336.051 C 849.147 1334.284, 815.136 1337.389, 743 1349.473 C 725.125 1352.468, 701.725 1356.267, 691 1357.916 C 599.812 1371.940, 539.752 1369.010, 477 1347.479 C 357.887 1306.609, 248.283 1203.439, 179.559 1067.500 C 143.545 996.262, 121.637 922.270, 114.568 848 C 109.302 792.670, 113.466 698.625, 124.109 632.500 C 141.293 525.742, 177.536 442.365, 236.260 374.500 C 248.938 359.849, 275.647 333.714, 290.500 321.427 C 320.128 296.917, 358.812 271.375, 386.500 258.041 C 459.934 222.675, 551.310 216.922, 655.668 241.093 C 701.984 251.821, 741.884 265.452, 788.343 286.420 C 791.556 287.870, 794.031 288.640, 793.843 288.131 C 793.244 286.514, 776.930 272.069, 764.458 262.113 C 707.013 216.254, 634.923 182.790, 569.350 171.543 C 545.493 167.451, 538.144 166.846, 508.500 166.533 C 492 166.359, 476.700 166.395, 474.500 166.614 M 5164 327.500 L 5164 373 5200.250 372.984 C 5237.802 372.968, 5256.554 371.995, 5266 369.574 C 5284.850 364.743, 5295.509 356.460, 5301.121 342.282 C 5303.025 337.472, 5303.417 334.563, 5303.455 324.979 C 5303.498 313.928, 5303.366 313.185, 5300.208 306.771 C 5293.922 294.002, 5281.896 286.945, 5260.500 283.470 C 5253.590 282.347, 5241.342 282.007, 5207.750 282.004 L 5164 282 5164 327.500 M 1155 528.500 L 1155 632 1055.250 632.091 C 966.108 632.172, 956.085 632.336, 961 633.633 C 1031.829 652.320, 1064.334 698.350, 1073.717 793.250 L 1075.373 810 1115.187 810 L 1155 810 1155 913 L 1155 1016 1244 1016 L 1333 1016 1333 913 L 1333 810 1437 810 L 1541 810 1541 721 L 1541 632 1437 632 L 1333 632 1333 528.500 L 1333 425 1244 425 L 1155 425 1155 528.500" stroke="none" fill="#0d7a53" fill-rule="evenodd"></path></svg>